<svg width="128.625000" height="24.000000" viewBox="0 0 128.625 24" fill="none" xmlns="http://www.w3.org/2000/svg" xmlns:xlink="http://www.w3.org/1999/xlink">
	<desc>
			Created with Pixso.
	</desc>
	<defs/>
	<path id="Vector" d="M44.8 0L48.61 0L50.37 18.44L50.44 18.44L52.31 0L56.62 0L58.49 18.44L58.56 18.44L60.32 0L63.74 0L61.19 23.99L56.26 23.99L54.46 7.81L54.39 7.81L52.6 23.99L47.35 23.99L44.8 0Z" fill="#FFFFFF" fill-opacity="1.000000" fill-rule="nonzero"/>
	<path id="Vector" d="M68.3 0L73.66 0L77.75 23.99L73.8 23.99L73.08 19.23L73.08 19.3L68.59 19.3L67.87 23.99L64.2 23.99L68.3 0ZM72.61 16.04L70.85 4.18L70.78 4.18L69.05 16.04L72.61 16.04Z" fill="#FFFFFF" fill-opacity="1.000000" fill-rule="nonzero"/>
	<path id="Vector" d="M79.67 0L83.63 0L83.63 20.57L90.13 20.57L90.13 23.99L79.67 23.99L79.67 0Z" fill="#FFFFFF" fill-opacity="1.000000" fill-rule="nonzero"/>
	<path id="Vector" d="M92.03 0L95.98 0L95.98 20.57L102.49 20.57L102.49 23.99L92.03 23.99L92.03 0Z" fill="#FFFFFF" fill-opacity="1.000000" fill-rule="nonzero"/>
	<path id="Vector" d="M104.38 0L115.17 0L115.17 3.42L108.34 3.42L108.34 9.77L113.77 9.77L113.77 13.19L108.34 13.19L108.34 20.57L115.17 20.57L115.17 23.99L104.38 23.99L104.38 0Z" fill="#FFFFFF" fill-opacity="1.000000" fill-rule="nonzero"/>
	<path id="Vector" d="M120.53 3.42L116.4 3.42L116.4 0L128.62 0L128.62 3.42L124.49 3.42L124.49 23.99L120.53 23.99L120.53 3.42Z" fill="#FFFFFF" fill-opacity="1.000000" fill-rule="nonzero"/>
	<path id="Vector" d="M15.9 9.77L15.9 0L19.85 0L19.85 0L28.3 0L28.3 3.42L28.3 3.42L28.3 13.71L28.3 13.71L28.3 17.14L19.85 17.14L19.85 23.99L15.9 23.99L15.9 13.71L24.35 13.71L24.35 3.42L19.85 3.42L19.85 9.77L15.9 9.77ZM4.09 0L9.45 0L13.55 23.99L9.59 23.99L8.87 19.23L8.87 19.3L4.38 19.3L3.66 23.99L0 23.99L4.09 0ZM30.85 0L34.8 0L34.8 10.11L39.83 0L43.79 0L39.08 8.81L43.86 23.99L39.73 23.99L36.38 13.3L34.8 16.35L34.8 23.99L30.85 23.99L30.85 0ZM8.41 16.04L6.64 4.18L6.57 4.18L4.85 16.04L8.41 16.04ZM28.3 24L24.35 24L24.35 20.57L28.3 20.57L28.3 24Z" fill="#F96D6B" fill-opacity="1.000000" fill-rule="evenodd"/>
</svg>
