<svg width="24.000000" height="24.000000" viewBox="0 0 24 24" fill="none" xmlns="http://www.w3.org/2000/svg" xmlns:xlink="http://www.w3.org/1999/xlink">
	<desc>
			Created with Pixso.
	</desc>
	<defs>
		<clipPath id="clip1_2812">
			<rect id="fluent:mail-24-filled" width="24.000000" height="24.000000" fill="white" fill-opacity="0"/>
		</clipPath>
	</defs>
	<rect id="fluent:mail-24-filled" width="24.000000" height="24.000000" fill="#FFFFFF" fill-opacity="0"/>
	<g clip-path="url(#clip1_2812)">
		<path id="Vector" d="M22 8.6L22 16.75C22 17.58 21.68 18.37 21.11 18.98C20.54 19.58 19.76 19.94 18.93 19.99L18.75 20L5.25 20C4.41 20 3.62 19.68 3.01 19.11C2.41 18.54 2.05 17.76 2 16.93L2 16.75L2 8.6L11.65 13.66C11.75 13.72 11.87 13.74 12 13.74C12.12 13.74 12.24 13.72 12.34 13.66L22 8.6ZM5.25 4L18.75 4C19.55 4 20.33 4.29 20.93 4.83C21.52 5.37 21.9 6.12 21.98 6.92L12 12.15L2.01 6.92C2.09 6.15 2.44 5.43 3 4.9C3.56 4.36 4.29 4.04 5.06 4L5.25 4L18.75 4L5.25 4Z" fill="#FFFFFF" fill-opacity="0.600000" fill-rule="nonzero"/>
	</g>
</svg>
