<svg width="24.000000" height="24.000000" viewBox="0 0 24 24" fill="none" xmlns="http://www.w3.org/2000/svg" xmlns:xlink="http://www.w3.org/1999/xlink">
	<desc>
			Created with Pixso.
	</desc>
	<defs>
		<clipPath id="clip1_2805">
			<rect id="Frame 4" width="24.000000" height="24.000000" fill="white" fill-opacity="0"/>
		</clipPath>
	</defs>
	<g clip-path="url(#clip1_2805)">
		<path id="Vector" d="M8.27 3.01C9.62 2.99 10.97 3 12.32 3C13.92 3 15.52 2.98 17.13 3.01C17.62 3.02 18.12 3.16 18.55 3.43C18.95 3.68 19.29 4.04 19.55 4.45C19.83 4.9 20 5.44 20 5.98C19.99 6.83 19.65 7.7 19.02 8.27C18.61 8.64 18.1 8.9 17.56 9C17.32 9.04 17.07 9.06 16.83 9.06C15.3 9.06 13.77 9.06 12.24 9.06C12.02 9.06 11.77 9.05 11.58 9.19C11.42 9.3 11.38 9.51 11.38 9.7C11.38 11 11.38 12.3 11.38 13.6C11.37 13.72 11.39 13.85 11.34 13.97C11.31 14.02 11.25 13.99 11.21 13.96C10.06 13.3 8.91 12.64 7.77 11.97C7.23 11.65 6.68 11.37 6.16 11.03C5.74 10.75 5.34 10.42 5.02 10.02C4.38 9.2 3.99 8.16 4 7.09C4.02 5.98 4.5 4.88 5.29 4.14C5.65 3.79 6.06 3.5 6.51 3.32C6.88 3.17 7.26 3.06 7.65 3.03C7.86 3.01 8.06 3.02 8.27 3.01Z" fill="#FFFFFF" fill-opacity="0.600000" fill-rule="nonzero"/>
		<path id="Vector" d="M12.66 10.01C12.71 9.98 12.77 10.02 12.82 10.04C13.22 10.27 13.62 10.5 14.02 10.73C14.52 11.03 15.04 11.3 15.54 11.59C16.02 11.87 16.49 12.16 16.97 12.43C17.62 12.8 18.3 13.17 18.81 13.75C19.09 14.05 19.3 14.42 19.5 14.79C19.6 14.99 19.7 15.19 19.75 15.41C19.8 15.58 19.83 15.76 19.89 15.93C19.99 16.24 19.99 16.58 19.99 16.91C20 17.18 19.96 17.45 19.9 17.71C19.8 18.14 19.66 18.57 19.43 18.96C19.18 19.38 18.85 19.75 18.49 20.07C17.93 20.54 17.25 20.82 16.55 20.94C16.15 21.01 15.75 20.99 15.35 20.99C12.66 20.99 9.96 21 7.27 20.99C6.88 21 6.49 20.98 6.12 20.87C5.57 20.7 5.08 20.36 4.7 19.91C4.41 19.57 4.22 19.16 4.1 18.73C3.83 17.75 4.11 16.63 4.79 15.9C5.18 15.48 5.67 15.15 6.22 15.04C6.69 14.97 7.16 14.92 7.63 14.93C9.09 14.92 10.56 14.93 12.02 14.92C12.19 14.91 12.37 14.88 12.48 14.74C12.6 14.6 12.61 14.41 12.61 14.23C12.62 12.92 12.61 11.61 12.62 10.3C12.62 10.2 12.61 10.09 12.66 10.01Z" fill="#FFFFFF" fill-opacity="0.600000" fill-rule="nonzero"/>
	</g>
</svg>
