<svg width="24.000000" height="24.000000" viewBox="0 0 24 24" fill="none" xmlns="http://www.w3.org/2000/svg" xmlns:xlink="http://www.w3.org/1999/xlink">
	<desc>
			Created with Pixso.
	</desc>
	<defs>
		<clipPath id="clip1_2810">
			<rect id="ant-design:skype-filled" width="24.000000" height="24.000000" fill="white" fill-opacity="0"/>
		</clipPath>
	</defs>
	<rect id="ant-design:skype-filled" width="24.000000" height="24.000000" fill="#FFFFFF" fill-opacity="0"/>
	<g clip-path="url(#clip1_2810)">
		<path id="Vector" d="M20.71 13.56C20.8 13.03 20.85 12.49 20.85 11.95C20.85 10.76 20.62 9.6 20.16 8.51C19.71 7.45 19.07 6.5 18.26 5.69C17.45 4.88 16.5 4.24 15.45 3.79C14.35 3.33 13.2 3.1 12 3.1C11.44 3.1 10.87 3.15 10.32 3.26C9.57 2.86 8.72 2.64 7.86 2.64C6.46 2.64 5.14 3.19 4.16 4.18C3.67 4.66 3.28 5.24 3.02 5.88C2.75 6.51 2.62 7.2 2.62 7.88C2.62 8.77 2.85 9.65 3.28 10.42C3.19 10.93 3.15 11.44 3.15 11.95C3.15 13.15 3.38 14.31 3.84 15.4C4.29 16.45 4.92 17.4 5.74 18.21C6.55 19.02 7.5 19.66 8.55 20.11C9.64 20.57 10.8 20.8 12 20.8C12.52 20.8 13.04 20.76 13.55 20.66C14.33 21.11 15.22 21.34 16.13 21.34C17.53 21.34 18.84 20.8 19.83 19.81C20.82 18.82 21.37 17.5 21.37 16.1C21.37 15.21 21.14 14.33 20.71 13.56ZM12.03 17.37C8.89 17.37 7.48 15.83 7.48 14.67C7.48 14.07 7.92 13.66 8.53 13.66C9.87 13.66 9.52 15.59 12.03 15.59C13.32 15.59 14.03 14.89 14.03 14.18C14.03 13.75 13.82 13.27 12.97 13.06L10.17 12.37C7.92 11.8 7.51 10.58 7.51 9.44C7.51 7.06 9.75 6.17 11.85 6.17C13.79 6.17 16.07 7.24 16.07 8.66C16.07 9.28 15.54 9.63 14.94 9.63C13.79 9.63 14 8.04 11.69 8.04C10.54 8.04 9.9 8.56 9.9 9.3C9.9 10.05 10.81 10.28 11.6 10.46L13.67 10.92C15.94 11.43 16.51 12.75 16.51 14C16.51 15.93 15.03 17.37 12.03 17.37Z" fill="#FFFFFF" fill-opacity="0.600000" fill-rule="nonzero"/>
	</g>
</svg>
